<?xml version="1.0" encoding="UTF-8"?>
<!DOCTYPE svg PUBLIC "-//W3C//DTD SVG 1.1//EN" "http://www.w3.org/Graphics/SVG/1.1/DTD/svg11.dtd">
<svg version="1.1" xmlns="http://www.w3.org/2000/svg" xmlns:xlink="http://www.w3.org/1999/xlink" x="0" y="0" width="28" height="28" viewBox="0, 0, 28, 28">
  <g id="Layer_1">
    <path d="M18.413,16.891 L13.962,6.637 L9.519,16.864 L5.877,25.247 C5.522,26.131 4.784,26.625 3.862,26.625 C2.732,26.625 1.853,25.739 1.853,24.61 C1.853,24.292 1.956,23.975 2.132,23.622 L5.463,16.194 L11.315,3.139 C11.81,2.045 12.694,1.375 13.928,1.375 L14.141,1.375 C15.376,1.375 16.223,2.045 16.719,3.139 L22.58,16.215 L25.899,23.622 C26.075,23.939 26.147,24.26 26.147,24.539 C26.147,25.706 25.261,26.625 24.098,26.625 C23.72,26.625 23.387,26.541 23.094,26.392 L23.094,26.393 L23.086,26.389 C23.081,26.385 23.075,26.382 23.07,26.379 L10.441,19.395 L19.503,19.395 L18.413,16.891" fill="#000000"/>
  </g>
</svg>
