<?xml version="1.0" encoding="UTF-8"?>
<!DOCTYPE svg PUBLIC "-//W3C//DTD SVG 1.1//EN" "http://www.w3.org/Graphics/SVG/1.1/DTD/svg11.dtd">
<svg version="1.1" xmlns="http://www.w3.org/2000/svg" xmlns:xlink="http://www.w3.org/1999/xlink" x="0" y="0" width="24.083" height="24" viewBox="0, 0, 48.167, 48">
  <g id="ANTLR4" transform="translate(-7.833, -8)">
    <path d="M40.666,37.496 L31.841,18.003 L23.032,37.444 L15.812,53.38 C15.108,55.061 13.645,56 11.816,56 C9.576,56 7.833,54.316 7.833,52.17 C7.833,51.565 8.038,50.962 8.386,50.291 L14.991,36.171 L26.593,11.353 C27.575,9.274 29.327,8 31.774,8 L32.196,8 C34.645,8 36.324,9.274 37.308,11.353 L48.928,36.211 L55.508,50.291 C55.857,50.894 56,51.504 56,52.035 C56,54.253 54.243,56 51.938,56 C51.188,56 50.528,55.84 49.947,55.557 L49.947,55.559 L49.931,55.551 C49.921,55.544 49.909,55.538 49.899,55.532 L24.86,42.256 L42.827,42.256 L40.666,37.496" fill="#000000" id="antlr-logo"/>
  </g>
</svg>
