<?xml version="1.0" encoding="UTF-8"?>
<!DOCTYPE svg PUBLIC "-//W3C//DTD SVG 1.1//EN" "http://www.w3.org/Graphics/SVG/1.1/DTD/svg11.dtd">
<svg version="1.1" xmlns="http://www.w3.org/2000/svg" xmlns:xlink="http://www.w3.org/1999/xlink" x="0" y="0" width="48" height="36.563" viewBox="0, 0, 48, 36.563">
  <g id="Channel" transform="translate(-8, -13.718)">
    <g id="channel">
      <path d="M52.111,23.422 L52.211,23.344 L56,20.386 L52.83,17.912 L52.595,17.726 L47.461,13.718 L47.461,27.052 L52.111,23.422" fill="#303030"/>
      <path d="M52.111,46.65 L52.211,46.572 L56,43.614 L52.83,41.14 L52.595,40.955 L47.461,36.946 L47.461,50.282 L52.111,46.65" fill="#328DF4"/>
      <path d="M16.054,46.818 L8,46.818 L8,40.41 L16.054,40.41 C17.399,40.41 19.45,39.31 20.196,38.189 L30.779,22.263 C32.705,19.366 36.78,17.182 40.256,17.182 L49.831,17.182 L49.831,23.589 L40.256,23.589 C38.911,23.589 36.86,24.688 36.115,25.809 L25.531,41.737 C23.607,44.633 19.532,46.818 16.054,46.818" fill="#328DF4"/>
      <path d="M30.779,41.737 C32.705,44.633 36.78,46.818 40.256,46.818 L49.831,46.818 L49.831,40.41 L40.256,40.41 C38.911,40.41 36.86,39.31 36.115,38.189 L33.216,33.828 L29.371,39.615 L30.779,41.737" fill="#328DF4"/>
      <path d="M25.531,22.263 C23.607,19.366 19.532,17.182 16.054,17.182 L8,17.182 L8,23.589 L16.054,23.589 C17.399,23.589 19.45,24.688 20.196,25.809 L23.094,30.172 L26.941,24.385 L25.531,22.263" fill="#328DF4"/>
    </g>
  </g>
</svg>
