<?xml version="1.0" encoding="UTF-8"?>
<!DOCTYPE svg PUBLIC "-//W3C//DTD SVG 1.1//EN" "http://www.w3.org/Graphics/SVG/1.1/DTD/svg11.dtd">
<svg version="1.1" xmlns="http://www.w3.org/2000/svg" xmlns:xlink="http://www.w3.org/1999/xlink" x="0" y="0" width="32.4" height="24.3" viewBox="0, 0, 32.4, 24.3">
  <g id="Ebene_1">
    <g>
      <path d="M27.692,7.577 L27.747,7.534 L29.822,5.914 L28.086,4.559 L27.957,4.457 L25.145,2.262 L25.145,9.565 L27.692,7.577" fill="#3498C9"/>
      <path d="M27.692,20.299 L27.747,20.256 L29.822,18.636 L28.086,17.281 L27.957,17.18 L25.145,14.984 L25.145,22.288 L27.692,20.299" fill="#3498C9"/>
      <path d="M7.943,20.391 L3.532,20.391 L3.532,16.881 L7.943,16.881 C8.68,16.881 9.803,16.279 10.212,15.665 L16.008,6.942 C17.063,5.355 19.295,4.159 21.199,4.159 L26.443,4.159 L26.443,7.668 L21.199,7.668 C20.462,7.668 19.339,8.27 18.931,8.884 L13.134,17.608 C12.08,19.194 9.848,20.391 7.943,20.391" fill="#3498C9"/>
      <path d="M16.008,17.608 C17.063,19.194 19.295,20.391 21.199,20.391 L26.443,20.391 L26.443,16.881 L21.199,16.881 C20.462,16.881 19.339,16.279 18.931,15.665 L17.343,13.276 L15.237,16.446 L16.008,17.608" fill="#3498C9"/>
      <path d="M13.134,6.942 C12.08,5.355 9.848,4.159 7.943,4.159 L3.532,4.159 L3.532,7.668 L7.943,7.668 C8.68,7.668 9.803,8.27 10.212,8.884 L11.799,11.274 L13.906,8.104 L13.134,6.942" fill="#3498C9"/>
    </g>
  </g>
</svg>
