<?xml version="1.0" encoding="UTF-8"?>
<!DOCTYPE svg PUBLIC "-//W3C//DTD SVG 1.1//EN" "http://www.w3.org/Graphics/SVG/1.1/DTD/svg11.dtd">
<svg version="1.1" xmlns="http://www.w3.org/2000/svg" xmlns:xlink="http://www.w3.org/1999/xlink" x="0" y="0" width="32.4" height="24.3" viewBox="0, 0, 120, 90">
  <g id="Ebene_1">
    <path d="M108.47,23.865 L108.716,23.671 L118.032,16.396 L110.241,10.313 L109.66,9.858 L97.034,0 L97.034,32.791 L108.47,23.865" fill="#3498c9"/>
    <path d="M108.47,80.984 L108.716,80.79 L118.032,73.516 L110.241,67.433 L109.66,66.978 L97.034,57.12 L97.034,89.913 L108.47,80.984" fill="#3498c9"/>
    <path d="M19.804,81.394 L0,81.394 L0,65.639 L19.804,65.639 C23.113,65.639 28.156,62.936 29.989,60.178 L56.015,21.013 C60.752,13.89 70.769,8.519 79.32,8.519 L102.864,8.519 L102.864,24.273 L79.32,24.273 C76.012,24.273 70.969,26.977 69.136,29.733 L43.109,68.899 C38.376,76.021 28.356,81.394 19.804,81.394" fill="#3498c9"/>
    <path d="M56.015,68.899 C60.752,76.021 70.769,81.393 79.32,81.393 L102.864,81.393 L102.864,65.638 L79.32,65.638 C76.012,65.638 70.969,62.935 69.136,60.178 L62.008,49.449 L52.551,63.682 L56.015,68.899" fill="#3498c9"/>
    <path d="M43.109,21.011 C38.376,13.889 28.356,8.518 19.804,8.518 L0,8.518 L0,24.273 L19.804,24.273 C23.113,24.273 28.156,26.977 29.989,29.731 L37.118,40.461 L46.576,26.229 L43.109,21.011" fill="#3498c9"/>
  </g>
</svg>
