<?xml version="1.0" encoding="UTF-8"?>
<!DOCTYPE svg PUBLIC "-//W3C//DTD SVG 1.1//EN" "http://www.w3.org/Graphics/SVG/1.1/DTD/svg11.dtd">
<svg version="1.1" xmlns="http://www.w3.org/2000/svg" xmlns:xlink="http://www.w3.org/1999/xlink" x="0" y="0" width="64" height="64" viewBox="0, 0, 64, 64">
  <g id="Ebene_2">
    <path d="M6.01,38.251 L6.031,38.232 C6.994,37.34 7.997,36.423 9.237,35.919 C16.141,32.504 22.171,31.054 28.151,25.807 C32.651,21.6 36.5,16.776 40.042,11.753 C41.45,9.757 42.797,7.728 44.268,5.778 C44.611,5.259 44.374,5.588 45.048,4.843 L45.713,4.242 C49.414,1.48 54.03,1.766 57.435,4.843 C60.855,8.264 60.855,13.81 57.435,17.23 C56.696,17.898 57.019,17.667 56.523,17.995 C56.22,18.226 55.924,18.464 55.615,18.687 C52.457,20.972 49.287,23.176 46.294,25.686 C42.99,28.456 39.906,31.47 36.909,34.566 C32.43,39.18 29.844,45.093 27.238,50.867 C26.658,52.967 25.463,54.68 24.028,56.268 C19.052,61.244 10.986,61.244 6.01,56.268 C0.977,50.916 1.155,43.623 6.01,38.251 L6.01,38.251 z M10.702,42.943 C8.318,45.327 8.318,49.193 10.702,51.577 C13.087,53.961 16.952,53.961 19.336,51.577 C21.72,49.193 21.72,45.327 19.336,42.943 C16.952,40.559 13.087,40.559 10.702,42.943 z M47.738,7.534 C45.804,9.469 45.804,12.606 47.738,14.541 C49.673,16.476 52.81,16.476 54.745,14.541 C56.68,12.606 56.68,9.469 54.745,7.534 C52.81,5.599 49.673,5.599 47.738,7.534 z" fill="#C48A10" id="dependency-dark"/>
  </g>
</svg>
