<?xml version="1.0" encoding="UTF-8"?>
<!DOCTYPE svg PUBLIC "-//W3C//DTD SVG 1.1//EN" "http://www.w3.org/Graphics/SVG/1.1/DTD/svg11.dtd">
<svg version="1.1" xmlns="http://www.w3.org/2000/svg" xmlns:xlink="http://www.w3.org/1999/xlink" x="0" y="0" width="57.698" height="57.66" viewBox="0, 0, 57.698, 57.66">
  <g id="Dependency" transform="translate(-3.151, -3.17)">
    <path d="M6.859,39.081 L6.88,39.062 C7.843,38.17 8.846,37.253 10.086,36.749 C16.99,33.334 23.02,31.884 29,26.637 C33.5,22.43 37.349,17.606 40.891,12.583 C42.299,10.587 43.646,8.558 45.117,6.608 C45.46,6.089 45.223,6.418 45.897,5.673 L46.562,5.072 C50.263,2.31 54.879,2.596 58.284,5.673 C61.704,9.094 61.704,14.64 58.284,18.06 C57.545,18.728 57.868,18.497 57.372,18.825 C57.069,19.056 56.773,19.294 56.464,19.517 C53.306,21.802 50.136,24.006 47.143,26.516 C43.839,29.286 40.755,32.3 37.758,35.396 C33.279,40.01 30.693,45.923 28.087,51.697 C27.507,53.797 26.312,55.51 24.877,57.098 C19.901,62.074 11.835,62.074 6.859,57.098 C1.826,51.746 2.004,44.453 6.859,39.081 L6.859,39.081 z M11.551,43.773 C9.167,46.157 9.167,50.023 11.551,52.407 C13.936,54.791 17.801,54.791 20.185,52.407 C22.569,50.023 22.569,46.157 20.185,43.773 C17.801,41.389 13.936,41.389 11.551,43.773 z M48.587,8.364 C46.653,10.299 46.653,13.436 48.587,15.371 C50.522,17.306 53.659,17.306 55.594,15.371 C57.529,13.436 57.529,10.299 55.594,8.364 C53.659,6.429 50.522,6.429 48.587,8.364 z" fill="#328DF4"/>
  </g>
</svg>
