<?xml version="1.0" encoding="UTF-8"?>
<!DOCTYPE svg PUBLIC "-//W3C//DTD SVG 1.1//EN" "http://www.w3.org/Graphics/SVG/1.1/DTD/svg11.dtd">
<svg version="1.1" xmlns="http://www.w3.org/2000/svg" xmlns:xlink="http://www.w3.org/1999/xlink" x="0" y="0" width="23.94" height="23.94" viewBox="0, 0, 105, 105">
  <g id="Ebene_1">
    <path d="M51.948,31.826 C40.301,31.826 30.825,41.302 30.825,52.949 C30.825,64.595 40.301,74.072 51.948,74.072 C63.596,74.072 73.072,64.595 73.072,52.949 C73.072,41.302 63.596,31.826 51.948,31.826 z M51.948,93.971 C29.328,93.971 10.926,75.569 10.926,52.949 C10.926,30.329 29.328,11.927 51.948,11.927 C74.569,11.927 92.972,30.329 92.972,52.949 C92.972,75.569 74.569,93.971 51.948,93.971" fill="#B7B7B3"/>
    <path d="M61.149,18.859 C62.517,18.859 63.335,17.781 62.968,16.464 L59.604,4.397 C59.237,3.078 57.818,2 56.449,2 L49.806,2 C48.437,2 47.019,3.078 46.649,4.397 L43.287,16.464 C42.919,17.781 43.738,18.859 45.107,18.859 L61.149,18.859" fill="#B7B7B3"/>
    <path d="M82.56,35.35 C83.527,36.317 84.867,36.135 85.541,34.942 L91.694,24.031 C92.367,22.84 92.126,21.073 91.158,20.106 L86.46,15.407 C85.492,14.442 83.726,14.198 82.535,14.871 L71.624,21.026 C70.433,21.696 70.249,23.038 71.217,24.006 L82.56,35.35" fill="#B7B7B3"/>
    <path d="M86.038,62.15 C86.038,63.518 87.117,64.336 88.434,63.971 L100.502,60.608 C101.819,60.238 102.898,58.819 102.898,57.451 L102.898,50.806 C102.898,49.438 101.819,48.018 100.502,47.652 L88.435,44.288 C87.117,43.921 86.039,44.739 86.039,46.108 L86.038,62.15" fill="#B7B7B3"/>
    <path d="M69.548,83.561 C68.581,84.527 68.764,85.867 69.956,86.541 L80.866,92.696 C82.058,93.367 83.825,93.126 84.792,92.159 L89.49,87.461 C90.458,86.492 90.699,84.727 90.027,83.535 L83.873,72.625 C83.201,71.433 81.859,71.25 80.892,72.216 L69.548,83.561" fill="#B7B7B3"/>
    <path d="M42.748,87.039 C41.38,87.039 40.562,88.119 40.928,89.436 L44.292,101.502 C44.66,102.819 46.079,103.898 47.447,103.898 L54.091,103.898 C55.46,103.898 56.879,102.819 57.246,101.502 L60.61,89.436 C60.978,88.119 60.158,87.039 58.79,87.039 L42.748,87.039" fill="#B7B7B3"/>
    <path d="M21.338,70.548 C20.371,69.581 19.03,69.766 18.358,70.957 L12.203,81.866 C11.53,83.059 11.771,84.825 12.739,85.792 L17.438,90.491 C18.405,91.458 20.172,91.7 21.364,91.027 L32.274,84.874 C33.466,84.201 33.648,82.86 32.681,81.894 L21.338,70.548" fill="#B7B7B3"/>
    <path d="M17.859,43.75 C17.859,42.38 16.781,41.562 15.463,41.93 L3.395,45.292 C2.078,45.659 1,47.079 1,48.448 L1,55.093 C1,56.46 2.078,57.88 3.395,58.248 L15.462,61.611 C16.781,61.978 17.858,61.159 17.858,59.791 L17.859,43.75" fill="#B7B7B3"/>
    <path d="M34.349,22.339 C35.317,21.371 35.133,20.029 33.941,19.359 L23.031,13.203 C21.839,12.531 20.072,12.772 19.106,13.74 L14.407,18.438 C13.439,19.404 13.199,21.171 13.87,22.364 L20.025,33.274 C20.697,34.466 22.038,34.649 23.005,33.682 L34.349,22.339" fill="#B7B7B3"/>
  </g>
</svg>
