<?xml version="1.0" encoding="UTF-8"?>
<!DOCTYPE svg PUBLIC "-//W3C//DTD SVG 1.1//EN" "http://www.w3.org/Graphics/SVG/1.1/DTD/svg11.dtd">
<svg version="1.1" xmlns="http://www.w3.org/2000/svg" xmlns:xlink="http://www.w3.org/1999/xlink" x="0" y="0" width="64" height="64" viewBox="0, 0, 64, 64">
  <g id="Ebene_2">
    <g id="mode-dark">
      <path d="M32,22.049 C26.513,22.049 22.049,26.513 22.049,32 C22.049,37.487 26.513,41.951 32,41.951 C37.487,41.951 41.951,37.487 41.951,32 C41.951,26.513 37.487,22.049 32,22.049 z M32,51.323 C21.345,51.323 12.677,42.655 12.677,32 C12.677,21.345 21.345,12.677 32,12.677 C42.655,12.677 51.323,21.345 51.323,32 C51.323,42.655 42.655,51.323 32,51.323" fill="#328DF4"/>
      <path d="M36.334,15.942 C36.979,15.942 37.365,15.433 37.189,14.813 L35.604,9.129 C35.433,8.508 34.763,8 34.121,8 L30.99,8 C30.345,8 29.679,8.508 29.504,9.129 L27.919,14.813 C27.747,15.433 28.133,15.942 28.778,15.942 L36.334,15.942" fill="#328DF4"/>
      <path d="M46.418,23.711 C46.873,24.167 47.504,24.079 47.824,23.518 L50.723,18.378 C51.039,17.817 50.927,16.986 50.467,16.531 L48.255,14.315 C47.799,13.862 46.968,13.747 46.407,14.062 L41.267,16.962 C40.706,17.277 40.618,17.912 41.078,18.368 L46.418,23.711" fill="#328DF4"/>
      <path d="M48.058,36.334 C48.058,36.979 48.567,37.365 49.187,37.193 L54.871,35.608 C55.492,35.433 56,34.766 56,34.121 L56,30.99 C56,30.345 55.492,29.679 54.871,29.504 L49.187,27.919 C48.567,27.747 48.058,28.133 48.058,28.778 L48.058,36.334" fill="#328DF4"/>
      <path d="M40.289,46.421 C39.833,46.873 39.921,47.504 40.482,47.824 L45.622,50.723 C46.183,51.039 47.014,50.927 47.469,50.471 L49.682,48.255 C50.138,47.799 50.253,46.968 49.938,46.407 L47.038,41.267 C46.723,40.706 46.088,40.622 45.632,41.074 L40.289,46.421" fill="#328DF4"/>
      <path d="M27.666,48.058 C27.021,48.058 26.636,48.567 26.807,49.187 L28.392,54.871 C28.567,55.492 29.234,56 29.879,56 L33.01,56 C33.655,56 34.321,55.492 34.496,54.871 L36.081,49.187 C36.253,48.567 35.867,48.058 35.222,48.058 L27.666,48.058" fill="#328DF4"/>
      <path d="M17.582,40.289 C17.127,39.833 16.496,39.921 16.176,40.482 L13.277,45.622 C12.961,46.183 13.073,47.014 13.529,47.469 L15.745,49.685 C16.201,50.138 17.032,50.253 17.593,49.938 L22.733,47.038 C23.294,46.723 23.378,46.088 22.922,45.636 L17.582,40.289" fill="#328DF4"/>
      <path d="M15.942,27.666 C15.942,27.021 15.433,26.636 14.813,26.811 L9.129,28.392 C8.508,28.567 8,29.234 8,29.879 L8,33.01 C8,33.655 8.508,34.321 9.129,34.496 L14.813,36.081 C15.433,36.253 15.942,35.867 15.942,35.222 L15.942,27.666" fill="#328DF4"/>
      <path d="M23.711,17.582 C24.167,17.127 24.079,16.492 23.518,16.176 L18.378,13.277 C17.817,12.961 16.986,13.073 16.531,13.533 L14.315,15.745 C13.859,16.198 13.747,17.032 14.062,17.593 L16.962,22.733 C17.277,23.294 17.912,23.382 18.368,22.926 L23.711,17.582" fill="#328DF4"/>
    </g>
  </g>
</svg>
