<?xml version="1.0" encoding="UTF-8"?>
<!DOCTYPE svg PUBLIC "-//W3C//DTD SVG 1.1//EN" "http://www.w3.org/Graphics/SVG/1.1/DTD/svg11.dtd">
<svg version="1.1" xmlns="http://www.w3.org/2000/svg" xmlns:xlink="http://www.w3.org/1999/xlink" x="0" y="0" width="64" height="64" viewBox="0, 0, 64, 64">
  <g id="Ebene_2">
    <g id="action-dark">
      <path d="M15.184,16.705 L15.184,11.904 L9.74,11.904 Q9.011,11.904 8.09,12.268 Q7.168,12.633 6.375,13.34 Q5.582,14.047 5.025,15.141 Q4.467,16.234 4.467,17.691 L4.467,25.751 Q4.467,26.822 4.039,27.572 Q3.61,28.323 3.01,28.773 Q2.41,29.223 1.724,29.416 Q1.038,29.609 0.566,29.609 L0.566,33.338 Q1.038,33.338 1.724,33.531 Q2.41,33.724 3.01,34.131 Q3.61,34.539 4.039,35.224 Q4.467,35.91 4.467,36.896 L4.467,45.213 Q4.467,46.67 5.025,47.763 Q5.582,48.857 6.375,49.564 Q7.168,50.271 8.09,50.636 Q9.011,51 9.74,51 L15.184,51 L15.184,46.199 L12.87,46.199 Q12.098,46.199 11.648,45.899 Q11.198,45.599 10.941,45.148 Q10.683,44.698 10.619,44.141 Q10.555,43.584 10.555,43.112 L10.555,36.253 Q10.555,34.881 10.062,34.003 Q9.569,33.124 8.904,32.588 Q8.24,32.052 7.511,31.816 Q6.782,31.581 6.311,31.538 L6.311,31.409 Q6.782,31.366 7.511,31.152 Q8.24,30.938 8.904,30.402 Q9.569,29.866 10.062,28.901 Q10.555,27.937 10.555,26.351 L10.555,19.835 Q10.555,19.32 10.619,18.763 Q10.683,18.206 10.941,17.756 Q11.198,17.305 11.648,17.005 Q12.098,16.705 12.87,16.705 z" fill="#C48A10"/>
      <path d="M17.107,36.639 L17.107,43.241 L23.837,43.241 L23.837,36.639 z" fill="#C48A10"/>
      <path d="M28.375,36.639 L28.375,43.241 L35.105,43.241 L35.105,36.639 z" fill="#C48A10"/>
      <path d="M39.643,36.639 L39.643,43.241 L46.373,43.241 L46.373,36.639 z" fill="#C48A10"/>
      <path d="M48.339,46.199 L48.339,51 L53.783,51 Q54.512,51 55.433,50.636 Q56.355,50.271 57.148,49.564 Q57.941,48.857 58.498,47.763 Q59.056,46.67 59.056,45.213 L59.056,36.896 Q59.056,35.91 59.484,35.224 Q59.913,34.539 60.513,34.131 Q61.113,33.724 61.799,33.531 Q62.485,33.338 63,33.338 L63,29.609 Q62.485,29.609 61.799,29.416 Q61.113,29.223 60.513,28.773 Q59.913,28.323 59.484,27.572 Q59.056,26.822 59.056,25.751 L59.056,17.691 Q59.056,16.234 58.498,15.141 Q57.941,14.047 57.148,13.34 Q56.355,12.633 55.433,12.268 Q54.512,11.904 53.783,11.904 L48.339,11.904 L48.339,16.705 L50.654,16.705 Q51.425,16.705 51.875,17.005 Q52.325,17.305 52.583,17.756 Q52.84,18.206 52.904,18.763 Q52.968,19.32 52.968,19.835 L52.968,26.351 Q52.968,27.937 53.461,28.901 Q53.954,29.866 54.619,30.402 Q55.283,30.938 56.012,31.152 Q56.741,31.366 57.212,31.409 L57.212,31.538 Q56.741,31.581 56.012,31.816 Q55.283,32.052 54.619,32.588 Q53.954,33.124 53.461,34.003 Q52.968,34.881 52.968,36.253 L52.968,43.112 Q52.968,43.584 52.904,44.141 Q52.84,44.698 52.583,45.148 Q52.325,45.599 51.875,45.899 Q51.425,46.199 50.654,46.199 z" fill="#C48A10"/>
    </g>
  </g>
</svg>
