<?xml version="1.0" encoding="UTF-8"?>
<!DOCTYPE svg PUBLIC "-//W3C//DTD SVG 1.1//EN" "http://www.w3.org/Graphics/SVG/1.1/DTD/svg11.dtd">
<svg version="1.1" xmlns="http://www.w3.org/2000/svg" xmlns:xlink="http://www.w3.org/1999/xlink" x="0" y="0" width="62.434" height="39.096" viewBox="0, 0, 62.434, 39.096">
  <g id="Ebene_10" transform="translate(-0.966, -12.104)">
    <g id="action-dark">
      <path d="M15.584,16.905 L15.584,12.104 L10.14,12.104 Q9.411,12.104 8.49,12.468 Q7.568,12.833 6.775,13.54 Q5.982,14.247 5.425,15.341 Q4.867,16.434 4.867,17.891 L4.867,25.951 Q4.867,27.022 4.439,27.772 Q4.01,28.523 3.41,28.973 Q2.81,29.423 2.124,29.616 Q1.438,29.809 0.966,29.809 L0.966,33.538 Q1.438,33.538 2.124,33.731 Q2.81,33.924 3.41,34.331 Q4.01,34.739 4.439,35.424 Q4.867,36.11 4.867,37.096 L4.867,45.413 Q4.867,46.87 5.425,47.963 Q5.982,49.057 6.775,49.764 Q7.568,50.471 8.49,50.836 Q9.411,51.2 10.14,51.2 L15.584,51.2 L15.584,46.399 L13.27,46.399 Q12.498,46.399 12.048,46.099 Q11.598,45.799 11.341,45.348 Q11.083,44.898 11.019,44.341 Q10.955,43.784 10.955,43.312 L10.955,36.453 Q10.955,35.081 10.462,34.203 Q9.969,33.324 9.304,32.788 Q8.64,32.252 7.911,32.016 Q7.182,31.781 6.711,31.738 L6.711,31.609 Q7.182,31.566 7.911,31.352 Q8.64,31.138 9.304,30.602 Q9.969,30.066 10.462,29.101 Q10.955,28.137 10.955,26.551 L10.955,20.035 Q10.955,19.52 11.019,18.963 Q11.083,18.406 11.341,17.956 Q11.598,17.505 12.048,17.205 Q12.498,16.905 13.27,16.905 z" fill="#328DF4"/>
      <path d="M17.507,36.839 L17.507,43.441 L24.237,43.441 L24.237,36.839 z" fill="#328DF4"/>
      <path d="M28.775,36.839 L28.775,43.441 L35.505,43.441 L35.505,36.839 z" fill="#328DF4"/>
      <path d="M40.043,36.839 L40.043,43.441 L46.773,43.441 L46.773,36.839 z" fill="#328DF4"/>
      <path d="M48.739,46.399 L48.739,51.2 L54.183,51.2 Q54.912,51.2 55.833,50.836 Q56.755,50.471 57.548,49.764 Q58.341,49.057 58.898,47.963 Q59.456,46.87 59.456,45.413 L59.456,37.096 Q59.456,36.11 59.884,35.424 Q60.313,34.739 60.913,34.331 Q61.513,33.924 62.199,33.731 Q62.885,33.538 63.4,33.538 L63.4,29.809 Q62.885,29.809 62.199,29.616 Q61.513,29.423 60.913,28.973 Q60.313,28.523 59.884,27.772 Q59.456,27.022 59.456,25.951 L59.456,17.891 Q59.456,16.434 58.898,15.341 Q58.341,14.247 57.548,13.54 Q56.755,12.833 55.833,12.468 Q54.912,12.104 54.183,12.104 L48.739,12.104 L48.739,16.905 L51.054,16.905 Q51.825,16.905 52.275,17.205 Q52.725,17.505 52.983,17.956 Q53.24,18.406 53.304,18.963 Q53.368,19.52 53.368,20.035 L53.368,26.551 Q53.368,28.137 53.861,29.101 Q54.354,30.066 55.019,30.602 Q55.683,31.138 56.412,31.352 Q57.141,31.566 57.612,31.609 L57.612,31.738 Q57.141,31.781 56.412,32.016 Q55.683,32.252 55.019,32.788 Q54.354,33.324 53.861,34.203 Q53.368,35.081 53.368,36.453 L53.368,43.312 Q53.368,43.784 53.304,44.341 Q53.24,44.898 52.983,45.348 Q52.725,45.799 52.275,46.099 Q51.825,46.399 51.054,46.399 z" fill="#328DF4"/>
    </g>
  </g>
</svg>
