<?xml version="1.0" encoding="UTF-8"?>
<!DOCTYPE svg PUBLIC "-//W3C//DTD SVG 1.1//EN" "http://www.w3.org/Graphics/SVG/1.1/DTD/svg11.dtd">
<svg version="1.1" xmlns="http://www.w3.org/2000/svg" xmlns:xlink="http://www.w3.org/1999/xlink" x="0" y="0" width="58.492" height="65.875" viewBox="0, 0, 58.492, 65.875">
  <g id="Predicate" transform="translate(-4.024, -0)">
    <path d="M12.773,40.753 C7.942,40.753 4.024,36.836 4.024,32 C4.024,27.164 7.942,23.247 12.773,23.247 C17.609,23.247 21.526,27.164 21.526,32 C21.526,36.836 17.609,40.753 12.773,40.753 z" fill="#328DF4"/>
    <path d="M14.358,33.304 L54.016,57.375" fill-opacity="0" stroke="#328DF4" stroke-width="4"/>
    <path d="M14.358,33.304 L54.016,9.786" fill-opacity="0" stroke="#328DF4" stroke-width="4" stroke-dasharray="0,12,20,12,12,12"/>
    <path d="M51.889,64 C47.053,64 43.137,60.083 43.137,55.247 C43.137,50.416 47.053,46.495 51.889,46.495 C56.725,46.495 60.642,50.416 60.642,55.247 C60.642,60.083 56.725,64 51.889,64 z" fill="#328DF4"/>
    <path d="M51.889,17.505 C47.053,17.505 43.137,13.584 43.137,8.753 C43.137,3.917 47.053,0 51.889,0 C56.725,0 60.642,3.917 60.642,8.753 C60.642,13.584 56.725,17.505 51.889,17.505 z" fill="#328DF4"/>
  </g>
</svg>
