<?xml version="1.0" encoding="UTF-8"?>
<!DOCTYPE svg PUBLIC "-//W3C//DTD SVG 1.1//EN" "http://www.w3.org/Graphics/SVG/1.1/DTD/svg11.dtd">
<svg version="1.1" xmlns="http://www.w3.org/2000/svg" xmlns:xlink="http://www.w3.org/1999/xlink" x="0" y="0" width="64" height="64" viewBox="0, 0, 64, 64">
  <g id="Ebene_2">
    <path d="M12.131,40.753 C7.3,40.753 3.382,36.836 3.382,32 C3.382,27.164 7.3,23.247 12.131,23.247 C16.967,23.247 20.884,27.164 20.884,32 C20.884,36.836 16.967,40.753 12.131,40.753 z" fill="#C48A10"/>
    <path d="M13.716,33.304 L53.375,57.375" fill-opacity="0" stroke="#C48A10" stroke-width="4"/>
    <path d="M13.716,33.304 L53.375,9.786" fill-opacity="0" stroke="#C48A10" stroke-width="4" stroke-dasharray="0,12,20,12,12,12"/>
    <path d="M51.247,64 C46.412,64 42.495,60.083 42.495,55.247 C42.495,50.416 46.412,46.495 51.247,46.495 C56.083,46.495 60,50.416 60,55.247 C60,60.083 56.083,64 51.247,64 z" fill="#C48A10"/>
    <path d="M51.247,17.505 C46.412,17.505 42.495,13.584 42.495,8.753 C42.495,3.917 46.412,0 51.247,0 C56.083,0 60,3.917 60,8.753 C60,13.584 56.083,17.505 51.247,17.505 z" fill="#C48A10"/>
  </g>
</svg>
