<?xml version="1.0" encoding="UTF-8"?>
<!DOCTYPE svg PUBLIC "-//W3C//DTD SVG 1.1//EN" "http://www.w3.org/Graphics/SVG/1.1/DTD/svg11.dtd">
<svg version="1.1" xmlns="http://www.w3.org/2000/svg" xmlns:xlink="http://www.w3.org/1999/xlink" x="0" y="0" width="64" height="64" viewBox="0, 0, 64, 64">
  <g id="Ebene_2">
    <g>
      <path d="M38.921,20.173 C41.793,23.045 42.472,30.586 38.791,34.445 L36.051,37.185 C34.998,38.329 34.34,38.586 33.655,38.873 C31.843,37.282 29.589,35.647 29.567,33.415 C31.313,33.128 31.88,32.521 33.036,31.581 C35.428,29.189 35.754,26.034 32.97,23.206 L24.639,14.787 C22.191,12.339 19.424,11.605 16.287,14.787 C13.215,17.814 13.949,20.713 16.397,23.162 L21.767,28.576 C20.496,31.216 20.817,34.078 21.336,36.873 L10.642,26.178 C7.415,22.952 7.085,15.148 10.608,11.76 L13.966,8.622 C17.082,5.506 24.845,6.096 27.784,9.036 L38.921,20.173 z" fill="#328DF4"/>
      <path d="M53.107,34.358 C57.012,38.264 56.954,44.654 52.977,48.631 L50.236,51.371 C46.259,55.348 39.87,55.406 35.964,51.501 L24.827,40.364 C20.922,36.459 20.98,30.069 24.957,26.092 L27.698,23.351 C28.478,22.622 28.785,22.206 29.788,21.792 C31.821,23.913 33.876,25.349 33.743,26.985 C32.417,27.426 31.655,27.521 30.263,28.653 C27.871,31.045 27.917,34.969 30.366,37.417 L38.735,45.786 C41.533,48.584 44.306,48.596 47.256,45.645 C49.648,43.253 50.161,40.486 47.098,37.423 L41.485,31.765 C43.024,29.017 42.869,26.786 42.058,23.31 L53.107,34.358 z" fill="#328DF4"/>
    </g>
  </g>
</svg>
