<?xml version="1.0" encoding="UTF-8"?>
<!DOCTYPE svg PUBLIC "-//W3C//DTD SVG 1.1//EN" "http://www.w3.org/Graphics/SVG/1.1/DTD/svg11.dtd">
<svg version="1.1" xmlns="http://www.w3.org/2000/svg" xmlns:xlink="http://www.w3.org/1999/xlink" x="0" y="0" width="50" height="50" viewBox="0, 0, 50, 50">
  <g id="Ebene_1">
    <path d="M35.86,9.7 L14.14,9.7 C11.69,9.7 9.7,11.69 9.7,14.14 L9.7,35.86 C9.7,38.31 11.69,40.3 14.14,40.3 L35.86,40.3 C38.31,40.3 40.3,38.31 40.3,35.86 L40.3,14.14 C40.3,11.69 38.31,9.7 35.86,9.7 z M39.31,35.86 C39.31,37.77 37.76,39.31 35.86,39.31 L14.14,39.31 C12.23,39.31 10.69,37.76 10.69,35.86 L10.69,14.14 C10.69,12.23 12.24,10.69 14.14,10.69 L35.86,10.69 C37.77,10.69 39.31,12.24 39.31,14.14 L39.31,35.86 z" fill="#FFFFFF"/>
    <path d="M35.86,10.69 L14.14,10.69 C12.23,10.69 10.69,12.24 10.69,14.14 L10.69,35.86 C10.69,37.77 12.24,39.31 14.14,39.31 L35.86,39.31 C37.77,39.31 39.31,37.76 39.31,35.86 L39.31,14.14 C39.31,12.23 37.76,10.69 35.86,10.69 z M22.83,34.97 C22.83,35.79 22.17,36.45 21.35,36.45 L15.03,36.45 C14.21,36.45 13.55,35.79 13.55,34.97 L13.55,33.79 C13.55,32.97 14.21,32.31 15.03,32.31 L21.35,32.31 C22.17,32.31 22.83,32.97 22.83,33.79 L22.83,34.97 z M29.44,21.25 C29.44,22.44 28.59,23.44 27.47,23.67 L27.47,27.72 C28.6,27.95 29.44,28.95 29.44,30.14 C29.44,30.4 29.4,30.67 29.32,30.91 L32.03,32.46 C32.48,31.94 33.14,31.62 33.88,31.62 C35.24,31.62 36.35,32.73 36.35,34.09 C36.35,35.45 35.24,36.56 33.88,36.56 C32.52,36.56 31.41,35.45 31.41,34.09 C31.41,33.82 31.45,33.56 31.53,33.32 L28.82,31.77 C28.36,32.3 27.68,32.61 26.97,32.61 C25.61,32.61 24.5,31.5 24.5,30.14 C24.5,28.95 25.35,27.95 26.47,27.72 L26.47,23.67 C25.89,23.55 25.37,23.23 25.01,22.76 L20.86,24.78 C20.91,24.98 20.94,25.19 20.94,25.4 C20.94,26.76 19.83,27.87 18.47,27.87 C17.11,27.87 16,26.76 16,25.4 C16,24.43 16.56,23.58 17.4,23.17 L16.2,18.38 C16.2,18.38 16.13,18.38 16.09,18.38 C14.73,18.38 13.62,17.27 13.62,15.91 C13.62,14.55 14.73,13.44 16.09,13.44 C17.45,13.44 18.56,14.55 18.56,15.91 C18.56,16.89 17.99,17.74 17.16,18.14 L18.36,22.92 C18.36,22.92 18.43,22.92 18.47,22.92 C19.24,22.92 19.96,23.29 20.42,23.88 L24.57,21.86 C24.52,21.66 24.49,21.45 24.49,21.24 C24.49,19.88 25.6,18.77 26.96,18.77 C27.55,18.77 28.1,18.98 28.52,19.33 L31.72,17.02 C31.58,16.71 31.5,16.37 31.5,16.01 C31.5,14.65 32.61,13.54 33.97,13.54 C35.33,13.54 36.44,14.65 36.44,16.01 C36.44,17.37 35.33,18.48 33.97,18.48 C33.33,18.48 32.74,18.23 32.3,17.83 L29.15,20.11 C29.33,20.45 29.43,20.84 29.43,21.25 z" fill="#FFFFFF"/>
    <path d="M16.12,13.45 C14.76,13.45 13.65,14.56 13.65,15.92 C13.65,17.28 14.76,18.39 16.12,18.39 C16.16,18.39 16.19,18.39 16.23,18.39 C16.57,18.38 16.9,18.29 17.19,18.15 C18.02,17.75 18.59,16.9 18.59,15.92 C18.59,14.56 17.48,13.45 16.12,13.45 z M16.12,17.4 C15.3,17.4 14.64,16.74 14.64,15.92 C14.64,15.1 15.3,14.44 16.12,14.44 C16.94,14.44 17.6,15.1 17.6,15.92 C17.6,16.74 16.94,17.4 16.12,17.4 z" fill="#FFFFFF"/>
    <path d="M33.98,13.55 C32.62,13.55 31.51,14.66 31.51,16.02 C31.51,16.38 31.59,16.72 31.73,17.03 C31.87,17.33 32.07,17.61 32.31,17.83 C32.75,18.24 33.34,18.48 33.98,18.48 C35.34,18.48 36.45,17.37 36.45,16.01 C36.45,14.65 35.34,13.54 33.98,13.54 z M33.98,17.5 C33.49,17.5 33.05,17.26 32.78,16.89 C32.6,16.65 32.5,16.35 32.5,16.02 C32.5,15.2 33.16,14.54 33.98,14.54 C34.8,14.54 35.46,15.2 35.46,16.02 C35.46,16.84 34.8,17.5 33.98,17.5 z" fill="#FFFFFF"/>
    <path d="M33.88,31.61 C33.14,31.61 32.48,31.94 32.03,32.45 C31.81,32.7 31.64,32.99 31.54,33.3 C31.46,33.54 31.42,33.8 31.42,34.07 C31.42,35.43 32.53,36.54 33.89,36.54 C35.25,36.54 36.36,35.43 36.36,34.07 C36.36,32.71 35.25,31.6 33.89,31.6 z M33.88,35.56 C33.06,35.56 32.4,34.9 32.4,34.08 C32.4,33.26 33.06,32.6 33.88,32.6 C34.7,32.6 35.36,33.26 35.36,34.08 C35.36,34.9 34.7,35.56 33.88,35.56 z" fill="#FFFFFF"/>
    <path d="M27.47,27.71 C27.31,27.68 27.15,27.66 26.98,27.66 C26.81,27.66 26.65,27.68 26.49,27.71 C25.36,27.94 24.52,28.94 24.52,30.13 C24.52,31.49 25.63,32.6 26.99,32.6 C27.7,32.6 28.38,32.29 28.84,31.76 C28.95,31.64 29.05,31.5 29.13,31.36 C29.21,31.22 29.28,31.06 29.33,30.91 C29.41,30.66 29.45,30.4 29.45,30.14 C29.45,28.95 28.6,27.95 27.48,27.72 z M26.98,31.61 C26.16,31.61 25.5,30.95 25.5,30.13 C25.5,29.31 26.16,28.65 26.98,28.65 C27.8,28.65 28.46,29.31 28.46,30.13 C28.46,30.39 28.39,30.64 28.26,30.86 C28,31.32 27.5,31.61 26.97,31.61 z" fill="#FFFFFF"/>
    <path d="M29.16,20.11 C29,19.81 28.79,19.55 28.53,19.34 C28.11,18.99 27.56,18.78 26.97,18.78 C25.61,18.78 24.5,19.89 24.5,21.25 C24.5,21.46 24.53,21.67 24.58,21.87 C24.62,22.03 24.68,22.19 24.75,22.34 C24.82,22.49 24.91,22.63 25.01,22.76 C25.37,23.23 25.89,23.55 26.47,23.67 C26.63,23.7 26.8,23.72 26.96,23.72 C27.12,23.72 27.29,23.7 27.45,23.67 C28.58,23.44 29.42,22.44 29.42,21.25 C29.42,20.84 29.32,20.45 29.14,20.11 z M26.97,22.73 C26.42,22.73 25.9,22.41 25.65,21.91 C25.65,21.91 25.65,21.91 25.65,21.89 C25.65,21.89 25.65,21.88 25.65,21.87 C25.56,21.67 25.51,21.46 25.51,21.24 C25.51,20.42 26.17,19.76 26.99,19.76 C27.81,19.76 28.47,20.42 28.47,21.24 C28.47,22.06 27.81,22.72 26.99,22.72 z" fill="#FFFFFF"/>
    <path d="M27.47,23.22 L27.47,23.66 C27.31,23.69 27.15,23.71 26.98,23.71 C26.81,23.71 26.65,23.69 26.49,23.66 L26.49,23.22 C26.49,22.95 26.71,22.73 26.98,22.73 C27.25,22.73 27.47,22.95 27.47,23.22 z" fill="#FFFFFF"/>
    <path d="M26.97,27.67 C27.14,27.67 27.3,27.69 27.46,27.72 L27.46,28.16 C27.46,28.43 27.24,28.65 26.97,28.65 C26.7,28.65 26.48,28.43 26.48,28.16 L26.48,27.72 C26.64,27.69 26.8,27.67 26.97,27.67 z" fill="#FFFFFF"/>
    <path d="M20.87,24.78 C20.83,24.62 20.77,24.46 20.7,24.31 C20.63,24.16 20.54,24.02 20.44,23.89 C19.98,23.29 19.25,22.93 18.49,22.93 C18.45,22.93 18.42,22.93 18.38,22.93 C18.21,22.93 18.05,22.96 17.89,23 C17.73,23.04 17.57,23.1 17.42,23.17 C16.57,23.57 16.02,24.43 16.02,25.4 C16.02,26.76 17.13,27.87 18.49,27.87 C19.85,27.87 20.96,26.76 20.96,25.4 C20.96,25.19 20.93,24.98 20.88,24.78 z M18.48,26.88 C17.66,26.88 17,26.22 17,25.4 C17,24.72 17.46,24.13 18.12,23.96 L18.12,23.96 C18.23,23.93 18.35,23.92 18.48,23.92 C19.03,23.92 19.55,24.24 19.8,24.74 C19.8,24.74 19.8,24.74 19.8,24.76 C19.8,24.76 19.8,24.76 19.8,24.77 C19.89,24.97 19.94,25.18 19.94,25.41 C19.94,26.23 19.28,26.89 18.46,26.89 z" fill="#FFFFFF"/>
    <path d="M17.07,17.71 L17.18,18.14 C16.89,18.28 16.56,18.36 16.22,18.38 L16.11,17.95 C16.04,17.69 16.2,17.42 16.47,17.35 C16.73,17.28 17,17.44 17.07,17.71 z" fill="#FFFFFF"/>
    <path d="M18.13,23.96 L18.13,23.96 C18.13,23.96 18.05,23.98 18.01,23.98 C17.79,23.98 17.59,23.83 17.53,23.61 L17.42,23.18 C17.57,23.11 17.72,23.05 17.89,23.01 C18.05,22.97 18.21,22.95 18.38,22.94 L18.49,23.37 C18.56,23.63 18.4,23.9 18.13,23.97 z" fill="#FFFFFF"/>
    <path d="M20.7,24.31 C20.77,24.46 20.83,24.62 20.87,24.78 L20.47,24.98 C20.4,25.01 20.33,25.03 20.25,25.03 C20.07,25.03 19.9,24.93 19.81,24.77 C19.81,24.77 19.81,24.77 19.81,24.76 C19.81,24.76 19.81,24.76 19.81,24.74 C19.7,24.5 19.81,24.21 20.04,24.09 L20.44,23.9 C20.54,24.03 20.63,24.17 20.7,24.32 z" fill="#FFFFFF"/>
    <path d="M25.42,22.56 L25.02,22.75 C24.92,22.62 24.83,22.48 24.76,22.33 C24.69,22.18 24.63,22.02 24.59,21.86 L24.99,21.66 C25.23,21.55 25.52,21.64 25.64,21.87 C25.64,21.87 25.64,21.88 25.65,21.89 C25.65,21.89 25.65,21.89 25.65,21.91 C25.76,22.15 25.65,22.44 25.42,22.56 z" fill="#FFFFFF"/>
    <path d="M28.93,30.68 L29.32,30.9 C29.27,31.06 29.2,31.21 29.12,31.35 C29.04,31.5 28.94,31.63 28.83,31.75 L28.44,31.53 C28.2,31.4 28.12,31.09 28.26,30.86 C28.39,30.62 28.7,30.54 28.93,30.68 z" fill="#FFFFFF"/>
    <path d="M32.6,33.35 C32.51,33.51 32.34,33.6 32.17,33.6 C32.09,33.6 32,33.58 31.93,33.53 L31.54,33.31 C31.64,32.99 31.81,32.7 32.03,32.46 L32.41,32.68 C32.65,32.81 32.73,33.12 32.59,33.35 z" fill="#FFFFFF"/>
    <path d="M15.03,33.29 L21.35,33.29 C21.621,33.29 21.84,33.509 21.84,33.78 L21.84,34.97 C21.84,35.241 21.621,35.46 21.35,35.46 L15.03,35.46 C14.759,35.46 14.54,35.241 14.54,34.97 L14.54,33.78 C14.54,33.509 14.759,33.29 15.03,33.29 z" fill="#FFFFFF"/>
    <path d="M29.16,20.11 L28.78,20.39 C28.69,20.45 28.59,20.48 28.49,20.48 C28.34,20.48 28.19,20.41 28.09,20.27 C27.93,20.05 27.98,19.74 28.2,19.58 L28.53,19.34 C28.79,19.55 29,19.81 29.16,20.11 z" fill="#FFFFFF"/>
    <path d="M32.67,17.57 L32.31,17.83 C32.07,17.61 31.87,17.33 31.73,17.03 L32.09,16.77 C32.31,16.61 32.62,16.66 32.78,16.88 C32.94,17.1 32.89,17.41 32.67,17.57 z" fill="#FFFFFF"/>
  </g>
</svg>
