<?xml version="1.0" encoding="UTF-8"?>
<!DOCTYPE svg PUBLIC "-//W3C//DTD SVG 1.1//EN" "http://www.w3.org/Graphics/SVG/1.1/DTD/svg11.dtd">
<svg version="1.1" xmlns="http://www.w3.org/2000/svg" xmlns:xlink="http://www.w3.org/1999/xlink" x="0" y="0" viewBox="0, 0, 15.427, 11.441">
  <g id="Ebene_1">
    <path d="M14.257,7.722 L13.654,8.652 C13.613,8.717 13.542,8.758 13.465,8.76 L13.458,8.76 C13.384,8.76 13.314,8.726 13.27,8.668 L12.267,7.352 L12.253,7.327 L12.841,7.327 L13.442,8.115 L14.257,6.855 L14.664,6.227 C14.736,6.118 14.881,6.087 14.991,6.158 C15.099,6.228 15.131,6.374 15.061,6.484 z M14.257,5.568 C14.043,5.48 13.809,5.431 13.562,5.431 C12.533,5.433 11.699,6.266 11.698,7.295 C11.699,8.324 12.533,9.158 13.562,9.16 C13.809,9.158 14.043,9.109 14.257,9.023 C14.943,8.746 15.425,8.078 15.427,7.295 C15.425,6.512 14.943,5.843 14.257,5.568 M11.297,7.295 C11.297,6.043 12.311,5.03 13.562,5.03 C13.805,5.03 14.038,5.069 14.257,5.139 L14.257,3.277 C14.257,2.387 13.536,1.665 12.646,1.665 L6.77,1.665 C6.634,0.72 5.957,0 5.357,0 L1.87,0 C1.071,0 0.559,0.37 0.264,0.926 C0.103,1.174 0.007,1.469 0.007,1.786 L0.007,1.843 C0.003,1.901 -0,1.958 -0,2.018 C-0,2.076 0.003,2.134 0.007,2.192 L0.007,4.687 C0.007,4.743 0.017,9.83 0.017,9.83 C0.017,10.721 0.738,11.441 1.628,11.441 L12.646,11.441 C13.536,11.441 14.257,10.721 14.257,9.83 L14.257,9.451 C14.038,9.521 13.805,9.56 13.562,9.56 C12.311,9.56 11.297,8.547 11.297,7.295" fill="#E0E0E0"/>
  </g>
</svg>
