<?xml version="1.0" encoding="UTF-8"?>
<!DOCTYPE svg PUBLIC "-//W3C//DTD SVG 1.1//EN" "http://www.w3.org/Graphics/SVG/1.1/DTD/svg11.dtd">
<svg version="1.1" xmlns="http://www.w3.org/2000/svg" xmlns:xlink="http://www.w3.org/1999/xlink" width="100%" height="100%" viewBox="0, 0, 400, 400">
  <g id="Layer_1">
    <path d="M330.833,138.761 L283.348,138.761 L283.348,71.859 L296.967,71.859 L296.967,127.396 L330.833,127.396 z M269.452,138.761 L256.798,138.761 L256.798,85.662 L243.409,138.761 L230.295,138.761 L216.951,85.662 L216.951,138.761 L204.298,138.761 L204.298,71.306 L224.682,71.306 L236.921,117.319 L249.022,71.306 L269.452,71.306 z M195.694,82.718 L175.724,82.718 L175.724,138.761 L162.104,138.761 L162.104,82.718 L142.089,82.718 L142.089,71.306 L195.694,71.306 z M132.84,138.761 L119.221,138.761 L119.221,109.267 L92.533,109.267 L92.533,138.761 L78.914,138.761 L78.914,71.306 L92.533,71.306 L92.533,97.856 L119.221,97.856 L119.221,71.306 L132.84,71.306 z M52.864,171.955 L356.882,171.955 L356.882,38.113 L52.864,38.113 z" fill="#FFFFFF"/>
    <path d="M83.415,251.75 C73.355,251.75 69.632,261.132 69.632,261.132 L69.632,309.678 C69.632,344.143 70.178,360.011 71.286,363.998 C73.487,371.312 82.455,380.28 89.752,382.48 C97.892,384.83 306.091,384.83 314.232,382.48 C321.545,380.28 330.496,371.312 332.714,363.998 C333.806,360.011 334.368,344.143 334.368,309.678 L334.368,261.132 C334.368,261.132 331.671,251.75 320.569,251.75 C315.059,251.75 308.854,255.341 306.918,259.609 C305.959,261.678 305.413,276.85 305.413,302.215 C305.413,335.324 304.999,342.356 303.195,346.211 C298.927,355.461 301.69,355.179 202,355.179 C102.31,355.179 105.057,355.461 100.788,346.211 C99.001,342.356 98.587,335.324 98.587,302.215 C98.587,276.85 98.025,261.678 97.065,259.609 C96.536,258.468 93.475,251.75 83.415,251.75 z" fill="#FFFFFF"/>
    <path d="M194.798,201.092 C193.2,202.116 191.421,204.278 190.768,205.966 C190.104,208.026 189.733,222.481 189.733,252.223 L189.733,295.474 L180.637,286.468 C169.661,275.672 167.781,274.366 163.649,274.366 C158.966,274.366 154.081,279.432 154.081,284.306 C154.081,287.684 155.116,288.899 175.098,308.892 C195.834,329.719 196.116,330 200.056,330 C203.996,330 204.277,329.719 224.822,309.174 L245.547,288.438 L245.547,284.115 C245.547,280.456 245.085,279.432 242.451,277.079 C239.175,274.175 235.325,273.522 231.666,275.39 C230.541,275.953 225.283,280.738 220.038,285.905 L210.367,295.474 L210.367,252.031 C210.367,204.368 210.277,203.625 204.84,200.81 C201.08,198.84 198.367,198.93 194.798,201.092 z" fill="#FFFFFF"/>
  </g>
</svg>
