<?xml version="1.0" encoding="UTF-8"?>
<!DOCTYPE svg PUBLIC "-//W3C//DTD SVG 1.1//EN" "http://www.w3.org/Graphics/SVG/1.1/DTD/svg11.dtd">
<svg version="1.1" xmlns="http://www.w3.org/2000/svg" xmlns:xlink="http://www.w3.org/1999/xlink" width="100%" height="100%" viewBox="0, 0, 400, 400">
  <g id="Layer_1">
    <path d="M356.758,39.113 L356.758,172.955 L52.74,172.955 L52.74,39.113 L356.758,39.113 z M255.44,77.054 Q248.88,77.054 243.64,79.374 Q238.4,81.694 234.8,85.774 Q231.2,89.854 229.28,95.334 Q227.36,100.814 227.36,107.214 Q227.36,113.454 229.28,118.854 Q231.2,124.254 234.8,128.254 Q238.4,132.254 243.64,134.534 Q248.88,136.814 255.44,136.814 Q259.6,136.814 263.68,135.094 Q267.76,133.374 271.12,129.054 L272.4,135.534 L280.4,135.534 L280.4,104.654 L256.4,104.654 L256.4,114.014 L269.04,114.014 Q268.48,120.014 265.08,123.174 Q261.68,126.334 255.44,126.334 Q251.2,126.334 248.24,124.694 Q245.28,123.054 243.44,120.334 Q241.6,117.614 240.76,114.214 Q239.92,110.814 239.92,107.214 Q239.92,103.454 240.76,99.934 Q241.6,96.414 243.44,93.654 Q245.28,90.894 248.24,89.254 Q251.2,87.614 255.44,87.614 Q260,87.614 263.2,90.014 Q266.4,92.414 267.52,97.214 L279.52,97.214 Q279.04,92.334 276.88,88.574 Q274.72,84.814 271.4,82.254 Q268.08,79.694 263.96,78.374 Q259.84,77.054 255.44,77.054 z M147.2,77.054 Q143.36,77.054 139.52,78.094 Q135.68,79.134 132.64,81.294 Q129.6,83.454 127.72,86.694 Q125.84,89.934 125.84,94.334 Q125.84,98.254 127.32,101.014 Q128.8,103.774 131.2,105.614 Q133.6,107.454 136.64,108.614 Q139.68,109.774 142.88,110.574 Q146,111.454 149.04,112.174 Q152.08,112.894 154.48,113.854 Q156.88,114.814 158.36,116.254 Q159.84,117.694 159.84,120.014 Q159.84,122.174 158.72,123.574 Q157.6,124.974 155.92,125.774 Q154.24,126.574 152.32,126.854 Q150.4,127.134 148.72,127.134 Q146.24,127.134 143.92,126.534 Q141.6,125.934 139.88,124.694 Q138.16,123.454 137.12,121.454 Q136.08,119.454 136.08,116.574 L123.92,116.574 Q123.84,121.854 125.84,125.694 Q127.84,129.534 131.24,132.014 Q134.64,134.494 139.08,135.654 Q143.52,136.814 148.24,136.814 Q154.08,136.814 158.52,135.454 Q162.96,134.094 165.96,131.654 Q168.96,129.214 170.48,125.854 Q172,122.494 172,118.574 Q172,113.774 169.96,110.694 Q167.92,107.614 165.12,105.774 Q162.32,103.934 159.48,103.094 Q156.64,102.254 155.04,101.934 Q149.68,100.574 146.36,99.694 Q143.04,98.814 141.16,97.934 Q139.28,97.054 138.64,96.014 Q138,94.974 138,93.294 Q138,91.454 138.8,90.254 Q139.6,89.054 140.84,88.254 Q142.08,87.454 143.6,87.134 Q145.12,86.814 146.64,86.814 Q148.96,86.814 150.92,87.214 Q152.88,87.614 154.4,88.574 Q155.92,89.534 156.84,91.214 Q157.76,92.894 157.92,95.454 L170.08,95.454 Q170.08,90.494 168.2,87.014 Q166.32,83.534 163.12,81.294 Q159.92,79.054 155.8,78.054 Q151.68,77.054 147.2,77.054 z M186.24,78.414 L173.36,78.414 L191.84,135.534 L206,135.534 L224.96,78.414 L212,78.414 L199.12,118.574 L198.96,118.574 L186.24,78.414 z" fill="#000000"/>
    <path d="M83.415,251.75 C73.355,251.75 69.632,261.132 69.632,261.132 L69.632,309.678 C69.632,344.143 70.178,360.011 71.286,363.998 C73.487,371.312 82.455,380.28 89.752,382.48 C97.892,384.83 306.091,384.83 314.232,382.48 C321.545,380.28 330.496,371.312 332.714,363.998 C333.806,360.011 334.368,344.143 334.368,309.678 L334.368,261.132 C334.368,261.132 331.671,251.75 320.569,251.75 C315.059,251.75 308.854,255.341 306.918,259.609 C305.959,261.678 305.413,276.85 305.413,302.215 C305.413,335.324 304.999,342.356 303.195,346.211 C298.927,355.461 301.69,355.179 202,355.179 C102.31,355.179 105.057,355.461 100.788,346.211 C99.001,342.356 98.587,335.324 98.587,302.215 C98.587,276.85 98.025,261.678 97.065,259.609 C96.536,258.468 93.475,251.75 83.415,251.75 z" fill="#000000"/>
    <path d="M194.798,201.092 C193.2,202.116 191.421,204.278 190.768,205.966 C190.104,208.026 189.733,222.481 189.733,252.223 L189.733,295.474 L180.637,286.468 C169.661,275.672 167.781,274.366 163.649,274.366 C158.966,274.366 154.081,279.432 154.081,284.306 C154.081,287.684 155.116,288.899 175.098,308.892 C195.834,329.719 196.116,330 200.056,330 C203.996,330 204.277,329.719 224.822,309.174 L245.547,288.438 L245.547,284.115 C245.547,280.456 245.085,279.432 242.451,277.079 C239.175,274.175 235.325,273.522 231.666,275.39 C230.541,275.953 225.283,280.738 220.038,285.905 L210.367,295.474 L210.367,252.031 C210.367,204.368 210.277,203.625 204.84,200.81 C201.08,198.84 198.367,198.93 194.798,201.092 z" fill="#000000"/>
  </g>
</svg>
