<?xml version="1.0" encoding="UTF-8"?>
<!DOCTYPE svg PUBLIC "-//W3C//DTD SVG 1.1//EN" "http://www.w3.org/Graphics/SVG/1.1/DTD/svg11.dtd">
<svg version="1.1" xmlns="http://www.w3.org/2000/svg" xmlns:xlink="http://www.w3.org/1999/xlink" x="0" y="0" width="64" height="65.1" viewBox="0, 0, 64, 65.1">
  <g id="Token" transform="translate(0, 1.1)">
    <path d="M31.974,0 C36.386,0 40.435,0.779 44.224,2.336 C48.117,3.945 51.646,6.385 54.553,9.343 C57.927,12.769 60.211,16.506 61.612,19.776 C63.221,23.565 64,27.666 64,31.974 C64,36.334 63.221,40.435 61.664,44.12 C60.159,47.702 57.719,51.439 54.605,54.553 C51.75,57.408 48.117,59.951 44.172,61.612 C40.383,63.222 36.334,64 31.974,64 C27.406,64 23.565,63.17 19.828,61.612 C16.143,60.055 12.509,57.668 9.395,54.553 C6.384,51.543 3.997,47.961 2.388,44.172 C0.831,40.435 0,36.594 0,32.026 C0,27.666 0.779,23.565 2.388,19.776 C3.945,16.091 6.333,12.509 9.447,9.343 C12.406,6.333 15.831,3.945 19.776,2.336 C23.565,0.779 27.614,0 31.974,0 L31.974,0 z M32.026,6.696 C27.977,6.696 25.123,7.423 22.423,8.565 C19.984,9.603 17.025,11.264 14.17,14.17 C11.627,16.766 9.81,19.672 8.668,22.372 C7.267,25.694 6.8,28.912 6.8,31.974 C6.8,35.504 7.423,38.566 8.668,41.525 C9.758,44.12 11.523,47.027 14.222,49.726 C16.662,52.166 19.361,54.034 22.423,55.332 C25.382,56.578 28.548,57.2 31.974,57.2 C35.4,57.2 38.618,56.578 41.577,55.332 C44.535,54.086 47.286,52.217 49.726,49.778 C51.906,47.598 53.982,44.743 55.332,41.525 C56.577,38.566 57.2,35.504 57.2,31.974 C57.2,28.548 56.629,25.486 55.332,22.372 C54.034,19.309 52.062,16.454 49.778,14.118 C47.546,11.835 44.587,9.81 41.629,8.565 C38.307,7.163 35.296,6.696 32.026,6.696 L32.026,6.696 z" fill="#328DF4"/>
    <text transform="matrix(0.5, 0, 0, 0.5, 36.8, 30.9)">
      <tspan x="-37.625" y="35" font-family="Arial-Black" font-size="90" fill="#328DF4">L</tspan>
    </text>
  </g>
</svg>
