<?xml version="1.0" encoding="UTF-8"?>
<!DOCTYPE svg PUBLIC "-//W3C//DTD SVG 1.1//EN" "http://www.w3.org/Graphics/SVG/1.1/DTD/svg11.dtd">
<svg version="1.1" xmlns="http://www.w3.org/2000/svg" xmlns:xlink="http://www.w3.org/1999/xlink" x="0" y="0" viewBox="0, 0, 12.5, 10.4">
  <g id="Ebene_1">
    <path d="M8.936,5.843 C7.69,5.843 6.678,4.832 6.678,3.585 C6.678,2.337 7.69,1.327 8.936,1.327 C10.183,1.327 11.194,2.337 11.194,3.585 C11.194,4.832 10.183,5.843 8.936,5.843 M3.805,8.17 L1.904,9.435 C1.622,9.623 1.24,9.547 1.052,9.264 C0.863,8.982 0.94,8.6 1.223,8.412 L3.123,7.146 C3.406,6.958 3.788,7.035 3.976,7.318 C4.164,7.6 4.087,7.982 3.805,8.17 M9.711,0.097 C9.431,0.032 9.149,-0 8.872,-0 C7.206,-0 5.703,1.141 5.306,2.831 C5.24,3.111 5.208,3.393 5.208,3.669 C5.208,3.988 5.25,4.3 5.33,4.599 L0.513,8.007 C0.179,8.243 0,8.62 0,8.999 C0,9.241 0.074,9.489 0.224,9.7 L0.346,9.872 C0.582,10.205 0.957,10.384 1.335,10.384 L1.337,10.384 C1.579,10.385 1.826,10.311 2.039,10.161 L6.875,6.739 C7.222,6.965 7.613,7.135 8.039,7.236 C8.318,7.301 8.6,7.333 8.876,7.333 L8.878,7.333 C10.543,7.333 12.046,6.193 12.444,4.503 L12.444,4.502 C12.509,4.223 12.541,3.941 12.541,3.664 C12.541,1.998 11.4,0.495 9.711,0.097" fill="#E0E0E0"/>
    <path d="M7.345,4.057 L7.345,3.188 L10.345,3.188 L10.524,3.188 L10.524,4.057 z" fill="#E0E0E0"/>
  </g>
</svg>
