<?xml version="1.0" encoding="UTF-8"?>
<!DOCTYPE svg PUBLIC "-//W3C//DTD SVG 1.1//EN" "http://www.w3.org/Graphics/SVG/1.1/DTD/svg11.dtd">
<svg version="1.1" xmlns="http://www.w3.org/2000/svg" xmlns:xlink="http://www.w3.org/1999/xlink" x="0" y="0" width="10px" height="10px" viewBox="0, 0, 8, 8.2">
  <g id="Ebene_1">
    <path d="M6.054,0.163 L4.061,2.155 L2.069,0.163 C1.827,-0.079 1.405,-0.048 1.126,0.23 L0.232,1.125 C-0.048,1.404 -0.078,1.827 0.163,2.068 L2.156,4.06 L0.163,6.053 C-0.078,6.295 -0.048,6.717 0.232,6.996 L1.126,7.891 C1.405,8.169 1.827,8.2 2.069,7.958 L4.061,5.966 L6.054,7.958 C6.296,8.2 6.718,8.169 6.997,7.891 L7.891,6.996 C8.17,6.717 8.2,6.295 7.959,6.053 L5.966,4.06 L7.959,2.068 C8.2,1.827 8.17,1.404 7.891,1.125 L6.997,0.23 C6.718,-0.048 6.296,-0.079 6.054,0.163" fill="#E0E0E0"/>
  </g>
</svg>
